<?xml version="1.0"?>
<svg xmlns="http://www.w3.org/2000/svg" viewBox="0 0 24 24">
    <path d="M13,1L8,3L4,7l-3,5v6c0.061,2.206,0.95,3.595,2.082,4.277C4.143,22.917,5.354,22.981,6,23 c0.043,0.001,16.995-0.005,16.995-0.005S23,6.01,23,6c0.004-0.504-0.049-1.24-0.178-1.742C22.431,2.729,21.15,1.367,19,1H13z M16.387,2.857h2.353c1.6,0.274,2.156,0.938,2.353,1.922c0.17,0.848,0.052,1.723,0,2.037L16.387,2.857z M13,3l1.809,0.948 l-1.435,4.505l-4.562,4.562l-4.878,0.803L3,12l2.333-3.75l4-4L13,3z M16.33,5.239l3.787,3.128h-4.763L16.33,5.239z M15.182,10.203 h4.792c-0.797,1.619-1.874,3.09-3.099,4.505L15.182,10.203z M13.518,10.949l1.549,4.132l-4.132-1.549L13.518,10.949z M21.208,11.752 v8.149l-3.443-3.443C19.058,15.016,20.257,13.474,21.208,11.752z M8.095,15.023l-1.004,4.562L4.881,15.54L8.095,15.023z M9.931,15.109l4.792,1.779c-1.826,1.624-3.769,3.001-6.026,3.759L9.931,15.109z M2.844,15.626l3.041,5.566 c-0.567-0.029-1.262-0.101-1.808-0.43c-0.625-0.377-1.178-1.017-1.234-2.755v-0.029V15.626z M16.473,17.806l3.414,3.414H11.94 C13.611,20.279,15.096,19.076,16.473,17.806z"/>
</svg>
