<svg width="640" height="480" xmlns="http://www.w3.org/2000/svg">

 <g>
  <title>background</title>
  <rect fill="none" id="canvas_background" height="482" width="642" y="-1" x="-1"/>
 </g>
 <g>
  <title>Layer 1</title>
  <g id="svg_1" transform="matrix(11.455,0,0,11.736,1333.3,511.06) ">
   <path id="svg_2" d="m-107.874694,-33.108419c6.305,0 8.908,0.166 15.844,10.421c0,0 3.74,4.959 8.279,4.707c0,0 3.112,0.67 5.883,-5.715c2.774,-6.388 5.043,-9.918 12.104,-8.994c0,0 -3.278,2.857 -3.741,4.076c-0.462,1.219 -7.97,10.296 -12.074,10.926c0.602,0.168 1.444,0.377 2.869,0.125c0,0 1.471,0.086 1.703,0.799c-1.449,-0.125 -6.24,1.304 -7.248,2.061c-1.007,0.759 -4.464,2.779 -7.234,0.718c0.592,-0.087 3.91,-0.698 5.445,-2.177c-2.582,0.03 -6.867,-0.811 -10.064,-3.794c-3.191,-2.984 -10.926,-11.978 -15.045,-12.65l3.279,-0.503"/>
  </g>
 </g>
</svg>